<?xml version="1.0" encoding="UTF-8" standalone="no"?>
<!-- Created with Inkscape (http://www.inkscape.org/) -->

<svg
   xmlns:dc="http://purl.org/dc/elements/1.1/"
   xmlns:cc="http://creativecommons.org/ns#"
   xmlns:rdf="http://www.w3.org/1999/02/22-rdf-syntax-ns#"
   xmlns:svg="http://www.w3.org/2000/svg"
   xmlns="http://www.w3.org/2000/svg"
   xmlns:sodipodi="http://sodipodi.sourceforge.net/DTD/sodipodi-0.dtd"
   xmlns:inkscape="http://www.inkscape.org/namespaces/inkscape"
   width="135.46587mm"
   height="59.825996mm"
   viewBox="0 0 135.46587 59.825996"
   version="1.1"
   id="svg8"
   inkscape:version="0.92.4 (unknown)"
   sodipodi:docname="Zeichnung.svg">
  <defs
     id="defs2" />
  <sodipodi:namedview
     id="base"
     pagecolor="#ffffff"
     bordercolor="#666666"
     borderopacity="1.0"
     inkscape:pageopacity="0.0"
     inkscape:pageshadow="2"
     inkscape:zoom="0.98994949"
     inkscape:cx="573.82864"
     inkscape:cy="248.49665"
     inkscape:document-units="mm"
     inkscape:current-layer="g98"
     showgrid="false"
     width="209mm"
     fit-margin-top="0"
     fit-margin-left="0"
     fit-margin-right="0"
     fit-margin-bottom="0"
     inkscape:window-width="1920"
     inkscape:window-height="1043"
     inkscape:window-x="1920"
     inkscape:window-y="0"
     inkscape:window-maximized="1" />
  <metadata
     id="metadata5">
    <rdf:RDF>
      <cc:Work
         rdf:about="">
        <dc:format>image/svg+xml</dc:format>
        <dc:type
           rdf:resource="http://purl.org/dc/dcmitype/StillImage" />
        <dc:title></dc:title>
      </cc:Work>
    </rdf:RDF>
  </metadata>
  <g
     inkscape:label="Ebene 1"
     inkscape:groupmode="layer"
     id="layer1"
     transform="translate(-0.46776789,-237.16091)">
    <g
       id="g98"
       transform="matrix(0.26458333,0,0,0.26458333,0.46776789,199.34058)">
      <g
         id="g14">
	<g
   id="g12">
		<path
   id="path10"
   d="m 140.61,273.063 h -5.956 v -22.69 c 0,-11.623 -10.593,-19.433 -26.358,-19.433 -15.765,0 -26.357,7.81 -26.357,19.433 v 22.69 H 65.571 L 91.248,172.356 c 1.101,-2.746 1.194,-5.749 1.186,-8.392 l -10e-4,-0.284 c 0,-15.632 -22.966,-20.737 -30.881,-20.737 -10.132,0 -18.414,5.148 -22.723,14.123 -0.199,0.415 -0.359,0.847 -0.481,1.29 C 0,298.98 0,300.981 0,302.305 c 0,12.096 8.537,20.876 20.297,20.876 H 33.97 c 4.2,0 7.604,-3.405 7.604,-7.604 0,-4.199 -3.404,-7.604 -7.604,-7.604 H 20.297 c -3.184,0 -4.887,-1.694 -5.072,-5.04 1.954,-8.608 23.256,-87.252 37.593,-139.831 1.785,-3.288 4.721,-4.954 8.734,-4.954 5.289,0 14.355,3.338 15.673,5.732 l 0.001,0.128 c 0.001,0.584 0.006,2.084 -0.132,2.756 -0.178,0.397 -0.321,0.809 -0.43,1.231 L 48.417,278.788 c -0.58,2.275 -0.076,4.69 1.365,6.544 1.44,1.854 3.656,2.938 6.004,2.938 h 33.757 c 4.2,0 7.604,-3.405 7.604,-7.604 v -30.294 c 0,-2.528 5.766,-4.225 11.149,-4.225 5.481,0 11.15,1.581 11.15,4.225 v 30.294 c 0,4.199 3.404,7.604 7.604,7.604 h 13.56 c 2.252,0 4.226,4.671 4.226,9.996 0,5.013 -3.022,9.171 -4.382,9.708 H 127.05 c -4.2,0 -7.604,3.405 -7.604,7.604 v 34.045 c 0,1.954 -4.872,4.225 -11.15,4.225 -6.467,0 -11.149,-2.523 -11.149,-4.225 v -34.045 c 0,-4.199 -3.404,-7.604 -7.604,-7.604 H 59.318 c -4.2,0 -7.604,3.405 -7.604,7.604 0,4.199 3.404,7.604 7.604,7.604 h 22.621 v 26.441 c 0,11.26 11.086,19.433 26.357,19.433 15.52,0 26.358,-7.991 26.358,-19.433 v -26.441 h 5.956 c 9.192,0 19.434,-10.232 19.434,-24.916 -0.001,-14.603 -8.174,-25.203 -19.434,-25.203 z"
   inkscape:connector-curvature="0" />

	</g>

</g>
      <g
         id="g20">
	<g
   id="g18">
		<path
   id="path16"
   d="m 492.566,273.063 h -5.956 v -22.69 c 0,-11.623 -10.593,-19.433 -26.358,-19.433 -15.765,0 -26.357,7.81 -26.357,19.433 v 22.69 h -16.368 l 25.679,-100.708 c 1.1,-2.745 1.193,-5.75 1.185,-8.393 l -0.001,-0.281 c 0,-15.632 -22.966,-20.737 -30.881,-20.737 -10.132,0 -18.415,5.148 -22.724,14.123 -0.199,0.415 -0.359,0.847 -0.481,1.29 0,0 -4.869,17.852 -11.125,40.898 0,0.001 0,0.002 -10e-4,0.003 l -7.879,29.071 c -19.345,71.527 -19.345,72.449 -19.345,73.978 0,12.096 8.537,20.876 20.298,20.876 h 61.64 v 26.441 c 0,11.26 11.085,19.433 26.357,19.433 15.52,0 26.358,-7.991 26.358,-19.433 v -26.441 h 5.956 c 9.192,0 19.434,-10.232 19.434,-24.915 0.003,-14.605 -8.171,-25.205 -19.431,-25.205 z m -0.156,34.911 h -13.404 c -4.2,0 -7.604,3.405 -7.604,7.604 v 34.045 c 0,1.954 -4.872,4.225 -11.15,4.225 -6.467,0 -11.149,-2.523 -11.149,-4.225 v -34.045 c 0,-4.199 -3.404,-7.604 -7.604,-7.604 h -69.244 c -3.183,0 -4.887,-1.694 -5.073,-5.037 0.677,-2.966 4.201,-16.655 18.801,-70.634 l 7.877,-29.064 c 5.504,-20.276 9.934,-36.53 10.916,-40.133 1.785,-3.288 4.721,-4.954 8.735,-4.954 5.289,0 14.354,3.338 15.673,5.732 l 10e-4,0.124 c 10e-4,0.585 0.006,2.09 -0.133,2.762 -0.177,0.396 -0.32,0.808 -0.429,1.23 l -28.249,110.79 c -0.58,2.275 -0.076,4.69 1.365,6.544 1.44,1.854 3.656,2.938 6.004,2.938 H 441.5 c 4.2,0 7.604,-3.405 7.604,-7.604 v -30.294 c 0,-2.528 5.766,-4.225 11.149,-4.225 5.481,0 11.15,1.581 11.15,4.225 v 30.294 c 0,4.199 3.404,7.604 7.604,7.604 h 13.56 c 2.252,0 4.226,4.671 4.226,9.996 -0.001,5.013 -3.024,9.169 -4.383,9.706 z"
   inkscape:connector-curvature="0" />

	</g>

</g>
      <g
         id="g26">
	<g
   id="g24">
		<path
   id="path22"
   d="m 330.892,206.939 c -2.512,-3.363 -7.279,-4.051 -10.642,-1.536 -3.362,2.515 -4.05,7.281 -1.535,10.643 10.168,13.597 15.542,29.786 15.542,46.818 0,43.149 -35.104,78.252 -78.252,78.252 -43.15,0 -78.253,-35.104 -78.253,-78.252 0,-43.149 35.104,-78.253 78.253,-78.253 17.152,0 33.434,5.444 47.083,15.744 3.353,2.53 8.122,1.863 10.651,-1.49 2.529,-3.352 1.862,-8.12 -1.49,-10.65 -16.311,-12.307 -35.76,-18.812 -56.245,-18.812 -51.534,0 -93.461,41.927 -93.461,93.461 0,51.534 41.927,93.46 93.461,93.46 51.534,0 93.46,-41.926 93.46,-93.46 0,-20.341 -6.422,-39.679 -18.572,-55.925 z"
   inkscape:connector-curvature="0" />

	</g>

</g>
      <g
         id="g32">
	<g
   id="g30">
		<path
   id="path28"
   d="M 296.624,292.726 266.761,262.863 296.624,233 c 2.968,-2.969 2.968,-7.783 -0.002,-10.753 -2.971,-2.97 -7.784,-2.97 -10.754,0 l -29.863,29.863 -29.863,-29.863 c -2.971,-2.97 -7.784,-2.97 -10.754,0 -2.97,2.97 -2.97,7.784 0,10.753 l 29.863,29.863 -29.863,29.863 c -2.97,2.97 -2.97,7.784 0,10.753 1.485,1.484 3.432,2.227 5.378,2.227 1.946,0 3.892,-0.742 5.377,-2.227 l 29.863,-29.863 29.863,29.863 c 1.485,1.484 3.432,2.227 5.377,2.227 1.945,0 3.892,-0.742 5.378,-2.227 2.969,-2.969 2.969,-7.784 0,-10.753 z"
   inkscape:connector-curvature="0" />

	</g>

</g>
      <g
         id="g34">
</g>
      <g
         id="g36">
</g>
      <g
         id="g38">
</g>
      <g
         id="g40">
</g>
      <g
         id="g42">
</g>
      <g
         id="g44">
</g>
      <g
         id="g46">
</g>
      <g
         id="g48">
</g>
      <g
         id="g50">
</g>
      <g
         id="g52">
</g>
      <g
         id="g54">
</g>
      <g
         id="g56">
</g>
      <g
         id="g58">
</g>
      <g
         id="g60">
</g>
      <g
         id="g62">
</g>
    </g>
  </g>
</svg>
